<svg width="204" height="18" viewBox="0 0 204 18" fill="none" xmlns="http://www.w3.org/2000/svg">
<path d="M0.202488 8.98215C0.202488 3.72718 4.45482 0.139648 10.8586 0.139648C13.0351 0.147463 15.1875 0.594328 17.1865 1.45339L16.2247 4.10614C14.5887 3.35136 12.8125 2.94688 11.0105 2.91872C6.68223 2.91872 4.45482 5.1925 4.45482 8.98215C4.36338 9.73241 4.42835 10.4934 4.64565 11.2175C4.86294 11.9415 5.22787 12.6128 5.71752 13.1893C6.20716 13.7658 6.81095 14.2351 7.49095 14.5675C8.17095 14.9 8.91249 15.0886 9.66898 15.1214C10.8976 15.1599 12.1007 14.7659 13.0678 14.0085C14.0349 13.2511 14.7043 12.1784 14.9591 10.978H10.1499V8.12316H18.9077V17.5467H16.0728V13.2771C15.5566 14.7023 14.5925 15.9227 13.3243 16.7559C12.056 17.5892 10.5518 17.9907 9.0362 17.9004C7.86564 17.9073 6.70551 17.6806 5.62399 17.2336C4.54247 16.7866 3.56138 16.1283 2.73839 15.2975C1.9154 14.4666 1.26711 13.4799 0.831617 12.3954C0.396127 11.3108 0.182227 10.1504 0.202488 8.98215Z" fill="black" fill-opacity="0.9"/>
<path d="M54.7488 10.2955C54.4408 12.7156 54.5694 15.1713 55.1285 17.5463H51.0787C50.66 15.5711 50.5068 13.549 50.623 11.5334H26.6784V17.5463H23.1348V0.442383H46.9276C52.1417 0.442383 54.9766 2.28668 54.9766 5.95C55.0062 6.90061 54.7296 7.83563 54.1874 8.61775C53.6453 9.39988 52.8662 9.98789 51.9646 10.2955H54.7488ZM26.6784 3.14566V8.77959H46.5732C49.6612 8.77959 51.2052 7.97114 51.2052 5.89947C51.2052 3.8278 49.7878 3.09513 46.6745 3.09513L26.6784 3.14566Z" fill="black" fill-opacity="0.9"/>
<path d="M58.5957 8.98176C58.5957 3.62574 62.8227 0.0634766 68.9228 0.0634766C75.0229 0.0634766 79.2752 3.7268 79.2752 8.98176C79.2752 14.2367 74.9975 17.9001 68.9228 17.9001C62.848 17.9001 58.5957 14.3378 58.5957 8.98176ZM75.4532 8.98176C75.4688 8.14294 75.3053 7.31041 74.9737 6.5395C74.642 5.76859 74.1498 5.07697 73.5297 4.51059C72.9096 3.94422 72.1758 3.51608 71.3772 3.25461C70.5785 2.99315 69.7332 2.90435 68.8975 2.99413C68.0752 2.94085 67.2508 3.0565 66.4751 3.33393C65.6994 3.61136 64.989 4.04467 64.3878 4.60707C63.7866 5.16947 63.3073 5.84899 62.9797 6.60363C62.6521 7.35826 62.4831 8.17196 62.4831 8.9944C62.4831 9.81684 62.6521 10.6305 62.9797 11.3852C63.3073 12.1398 63.7866 12.8193 64.3878 13.3817C64.989 13.9441 65.6994 14.3774 66.4751 14.6549C67.2508 14.9323 68.0752 15.0479 68.8975 14.9947C69.7354 15.0847 70.5828 14.9953 71.3833 14.7324C72.1838 14.4694 72.9189 14.039 73.5394 13.4699C74.1599 12.9007 74.6516 12.206 74.9816 11.432C75.3117 10.658 75.4724 9.82269 75.4532 8.98176Z" fill="black" fill-opacity="0.9"/>
<path d="M85.0719 0.442383L90.1342 13.4535L95.1965 0.442383H98.7148L103.777 13.3019L105.397 8.24905H109.042L106.207 17.5968H101.448L97.0442 5.2426L92.5641 17.5463H87.7296L81.1992 0.442383H85.0719Z" fill="black" fill-opacity="0.9"/>
<path d="M107.903 0.442383H130.253L128.886 3.3983H119.952V17.5463H116.307V3.3983H106.941L107.903 0.442383Z" fill="black" fill-opacity="0.9"/>
<path d="M139.111 0.442383L147.008 17.5463H143.035L141.415 13.8325H132.303L130.556 17.5968H126.607L134.505 0.442383H139.111ZM140.352 11.0786L136.884 2.7667L133.34 11.0786H140.352Z" fill="black" fill-opacity="0.9"/>
<path d="M151.034 13.5546C153.014 14.5526 155.195 15.0882 157.413 15.121C160.247 15.121 161.766 14.262 161.766 13.0746C161.766 9.84075 150.452 10.5482 150.452 4.7879C150.452 1.93303 153.287 0.0634766 157.843 0.0634766C160.313 0.0667155 162.758 0.565006 165.031 1.5288L164.019 4.30787C162.082 3.4474 159.988 2.99172 157.868 2.96887C155.337 2.96887 154.325 3.60047 154.325 4.73737C154.325 8.12278 165.588 7.74382 165.588 13.2262C165.588 16.0052 162.601 17.9758 157.463 17.9758C154.903 17.978 152.373 17.4264 150.047 16.3589L151.034 13.5546Z" fill="black" fill-opacity="0.9"/>
<path d="M173.434 0.442383V7.6427H190.772L198.518 0.442383H203.251L194.974 8.02166L203.96 17.4705H199.378L192.569 10.2702H173.459V17.4958H169.789V0.442383H173.434Z" fill="black" fill-opacity="0.9"/>
<path d="M68.9227 11.0539C70.1529 11.0539 71.1501 10.0585 71.1501 8.83068C71.1501 7.60281 70.1529 6.60742 68.9227 6.60742C67.6926 6.60742 66.6953 7.60281 66.6953 8.83068C66.6953 10.0585 67.6926 11.0539 68.9227 11.0539Z" fill="black" fill-opacity="0.9"/>
</svg>
