<svg width="28" height="18" viewBox="0 0 28 18" fill="none" xmlns="http://www.w3.org/2000/svg">
<path d="M15.1798 17.3996C6.15993 17.3996 1.01515 11.0933 0.800781 0.599609H5.31896C5.46736 8.30171 8.79828 11.5642 11.4366 12.2368V0.599609H15.691V7.24225C18.2963 6.95637 21.0336 3.92934 21.9571 0.599609H26.2114C25.8634 2.3265 25.1698 3.96159 24.1739 5.40261C23.178 6.84363 21.9013 8.05957 20.4235 8.97438C22.073 9.81028 23.53 10.9934 24.6982 12.4457C25.8664 13.898 26.7194 15.5864 27.2008 17.3996H22.5177C22.0856 15.8247 21.2073 14.415 19.9928 13.347C18.7784 12.279 17.282 11.6003 15.691 11.396V17.3996H15.1798Z" fill="#0077FF"/>
</svg>
