<svg width="48" height="48" viewBox="0 0 48 48" fill="none" xmlns="http://www.w3.org/2000/svg">
<path d="M0 16C0 8.45753 0 4.68629 2.34315 2.34315C4.68629 0 8.45753 0 16 0H32C39.5425 0 43.3137 0 45.6569 2.34315C48 4.68629 48 8.45753 48 16V32C48 39.5425 48 43.3137 45.6569 45.6569C43.3137 48 39.5425 48 32 48H16C8.45753 48 4.68629 48 2.34315 45.6569C0 43.3137 0 39.5425 0 32V16Z" fill="#2E4CE6"/>
<circle cx="24.4551" cy="24.4004" r="18" fill="#FFCCCC"/>
<ellipse cx="18.8668" cy="36.7207" rx="3.03476" ry="3.04682" fill="#0D2080"/>
<ellipse cx="32.773" cy="34.0546" rx="3.03476" ry="3.04682" fill="#0D2080"/>
<path d="M10.209 18.4453L37.1069 13.6836L38.6879 22.6852C39.2699 25.9995 37.0657 29.16 33.7645 29.7444L12.8439 33.448L10.209 18.4453Z" fill="#0D2080"/>
<path d="M37.1069 13.6836L10.209 18.4453L12.8439 33.448L12.8441 33.4479L12.3173 30.4486L38.4147 25.8287C38.7686 24.8556 38.8799 23.7788 38.6879 22.6852L37.1069 13.6836Z" fill="#2E4CE6"/>
<rect width="3.03513" height="21.3252" transform="matrix(0.984689 -0.174317 0.172981 0.984925 9.1543 12.4434)" fill="#0D2080"/>
<rect width="3.04646" height="7.45896" transform="matrix(0.172981 0.984925 -0.984689 0.174317 12.1465 11.9141)" fill="#0D2080"/>
<path d="M20.7483 25.0733C20.0832 24.932 19.4535 24.6936 18.8591 24.3581C18.2763 24.015 17.8253 23.6352 17.5061 23.2186L18.5572 21.6929C19.2796 22.5041 20.1254 23.0126 21.0945 23.2185C21.636 23.3335 22.0822 23.2887 22.433 23.0842C22.7933 22.8817 23.0207 22.5563 23.1152 22.108C23.2117 21.6501 23.1418 21.2516 22.9056 20.9124C22.6788 20.5753 22.3184 20.3542 21.8244 20.2493C21.1118 20.0979 20.4465 20.2406 19.8284 20.6774L18.4032 20.3746L19.7148 14.1506L26.0709 15.5007L25.688 17.3179L21.4553 16.4188L20.9789 18.6795C21.5088 18.4731 22.1015 18.4396 22.7571 18.5788C23.3937 18.714 23.9203 18.9704 24.3371 19.3479C24.7558 19.7159 25.047 20.1714 25.2105 20.7144C25.374 21.2574 25.3884 21.8484 25.2537 22.4875C25.111 23.1647 24.8344 23.7239 24.4238 24.1648C24.0132 24.6058 23.4928 24.9088 22.8624 25.0739C22.2321 25.239 21.5273 25.2388 20.7483 25.0733Z" fill="#FFD580"/>
<path d="M28.6635 25.9922L29.2514 23.2021L26.5437 22.627L26.8572 21.1389L29.565 21.7141L30.1349 19.0099L31.674 19.3368L31.1042 22.041L33.8119 22.6162L33.4984 24.1042L30.7906 23.529L30.2026 26.3191L28.6635 25.9922Z" fill="#FFD580"/>
</svg>
